<?xml version="1.0" encoding="UTF-8"?>
<svg version="1.1" xmlns="http://www.w3.org/2000/svg" width="500" height="500">
<path d="M0 0 C0.84658173 -0.00979385 1.69316345 -0.01958771 2.56539917 -0.02967834 C63.8064959 -0.59170616 122.481561 17.29096643 167.27832031 60.68505859 C168.42550392 61.79558539 169.57926047 62.89933837 170.73730469 63.99853516 C180.90750007 73.66999498 189.74229463 83.8106184 197.8828125 95.23828125 C198.54289307 96.14731201 198.54289307 96.14731201 199.21630859 97.07470703 C223.309993 130.43590459 238.72298123 174.03482845 239.12109375 215.35546875 C239.1308876 216.20205048 239.14068146 217.0486322 239.15077209 217.92086792 C239.71279991 279.16196465 221.83012732 337.83702975 178.43603516 382.63378906 C177.32550836 383.78097267 176.22175538 384.93472922 175.12255859 386.09277344 C165.45109877 396.26296882 155.31047535 405.09776338 143.8828125 413.23828125 C142.97378174 413.89836182 142.97378174 413.89836182 142.04638672 414.57177734 C108.68518916 438.66546175 65.0862653 454.07844998 23.765625 454.4765625 C22.91904327 454.48635635 22.07246155 454.49615021 21.20022583 454.50624084 C-40.0408709 455.06826866 -98.715936 437.18559607 -143.51269531 393.79150391 C-144.65987892 392.68097711 -145.81363547 391.57722413 -146.97167969 390.47802734 C-157.14187507 380.80656752 -165.97666963 370.6659441 -174.1171875 359.23828125 C-174.55724121 358.63226074 -174.99729492 358.02624023 -175.45068359 357.40185547 C-199.544368 324.04065791 -214.95735623 280.44173405 -215.35546875 239.12109375 C-215.3652626 238.27451202 -215.37505646 237.4279303 -215.38514709 236.55569458 C-215.94717491 175.31459785 -198.06450232 116.63953275 -154.67041016 71.84277344 C-153.55988336 70.69558983 -152.45613038 69.54183328 -151.35693359 68.38378906 C-141.68547377 58.21359368 -131.54485035 49.37879912 -120.1171875 41.23828125 C-119.51116699 40.79822754 -118.90514648 40.35817383 -118.28076172 39.90478516 C-84.91956416 15.81110075 -41.3206403 0.39811252 0 0 Z " fill="#2A5D42" transform="translate(238.1171875,22.76171875)"/>
<path d="M0 0 C67.65 0 135.3 0 205 0 C205 20.13 205 40.26 205 61 C162.43 61 119.86 61 76 61 C76 83.11 76 105.22 76 128 C108.01 128 140.02 128 173 128 C173 147.8 173 167.6 173 188 C140.99 188 108.98 188 76 188 C76 229.91 76 271.82 76 315 C50.92 315 25.84 315 0 315 C0 211.05 0 107.1 0 0 Z " fill="#FEFEFE" transform="translate(157,106)"/>
<path d="M0 0 C0.84658173 -0.00979385 1.69316345 -0.01958771 2.56539917 -0.02967834 C63.8064959 -0.59170616 122.481561 17.29096643 167.27832031 60.68505859 C168.42550392 61.79558539 169.57926047 62.89933837 170.73730469 63.99853516 C180.90750007 73.66999498 189.74229463 83.8106184 197.8828125 95.23828125 C198.54289307 96.14731201 198.54289307 96.14731201 199.21630859 97.07470703 C223.309993 130.43590459 238.72298123 174.03482845 239.12109375 215.35546875 C239.1308876 216.20205048 239.14068146 217.0486322 239.15077209 217.92086792 C239.71279991 279.16196465 221.83012732 337.83702975 178.43603516 382.63378906 C177.32550836 383.78097267 176.22175538 384.93472922 175.12255859 386.09277344 C165.45109877 396.26296882 155.31047535 405.09776338 143.8828125 413.23828125 C142.97378174 413.89836182 142.97378174 413.89836182 142.04638672 414.57177734 C108.68518916 438.66546175 65.0862653 454.07844998 23.765625 454.4765625 C22.91904327 454.48635635 22.07246155 454.49615021 21.20022583 454.50624084 C-40.0408709 455.06826866 -98.715936 437.18559607 -143.51269531 393.79150391 C-144.65987892 392.68097711 -145.81363547 391.57722413 -146.97167969 390.47802734 C-157.14187507 380.80656752 -165.97666963 370.6659441 -174.1171875 359.23828125 C-174.55724121 358.63226074 -174.99729492 358.02624023 -175.45068359 357.40185547 C-199.544368 324.04065791 -214.95735623 280.44173405 -215.35546875 239.12109375 C-215.3652626 238.27451202 -215.37505646 237.4279303 -215.38514709 236.55569458 C-215.94717491 175.31459785 -198.06450232 116.63953275 -154.67041016 71.84277344 C-153.55988336 70.69558983 -152.45613038 69.54183328 -151.35693359 68.38378906 C-141.68547377 58.21359368 -131.54485035 49.37879912 -120.1171875 41.23828125 C-119.51116699 40.79822754 -118.90514648 40.35817383 -118.28076172 39.90478516 C-84.91956416 15.81110075 -41.3206403 0.39811252 0 0 Z M-32.1171875 8.23828125 C-33.04176758 8.4202002 -33.96634766 8.60211914 -34.91894531 8.78955078 C-53.8649709 12.61499334 -72.11985508 18.97119395 -89.13232422 28.16992188 C-91.22113713 29.29423249 -93.32641459 30.38320478 -95.43359375 31.47265625 C-111.57295837 39.96631641 -125.9010151 50.70570397 -139.1171875 63.23828125 C-140.42480011 64.34823149 -141.73705021 65.45275017 -143.0546875 66.55078125 C-160.62030814 81.9829257 -174.15376983 101.75209335 -185.1171875 122.23828125 C-185.48392578 122.9127832 -185.85066406 123.58728516 -186.22851562 124.28222656 C-197.64792841 145.42811894 -205.13919972 168.56925394 -209.1171875 192.23828125 C-209.3234375 193.44484375 -209.5296875 194.65140625 -209.7421875 195.89453125 C-217.82218691 252.00563827 -203.09605788 312.49253114 -169.30078125 358.1015625 C-164.54908561 364.33533268 -159.46177384 370.25718057 -154.1484375 376.01953125 C-152.32760625 378.00843924 -150.59631344 380.04511101 -148.8671875 382.11328125 C-133.39217546 399.6937371 -113.64186003 413.25426809 -93.1171875 424.23828125 C-92.44268555 424.60501953 -91.76818359 424.97175781 -91.07324219 425.34960938 C-67.19857786 438.24264044 -41.79921668 445.17332752 -15.1171875 449.23828125 C-13.87324219 449.43550781 -12.62929687 449.63273437 -11.34765625 449.8359375 C-5.11753468 450.57251137 1.18102633 450.43682055 7.4453125 450.42578125 C8.47217163 450.42437637 8.47217163 450.42437637 9.51977539 450.42294312 C65.34965139 450.25819336 119.23257747 431.51157201 160.62890625 393.3046875 C162.6291131 391.47087567 164.67624488 389.72790758 166.7578125 387.98828125 C184.29063195 372.55520066 198.05151205 352.79104935 208.8828125 332.23828125 C209.30369141 331.44969727 209.72457031 330.66111328 210.15820312 329.84863281 C232.8174908 286.80990899 240.93945982 236.11335489 231.8828125 188.23828125 C231.74891113 187.46581055 231.61500977 186.69333984 231.47705078 185.89746094 C224.54008004 145.89005875 205.47554608 108.028311 177.84375 78.3515625 C176.03672038 76.40414612 174.33510251 74.40187734 172.6328125 72.36328125 C137.22727276 32.14066127 81.1275403 7.92698086 28.23486328 4.41992188 C7.7303196 3.30882351 -11.98092027 4.18236645 -32.1171875 8.23828125 Z " fill="#F9FBFA" transform="translate(238.1171875,22.76171875)"/>
</svg>
